<svg xmlns="http://www.w3.org/2000/svg" width="48.0" height="48.0" viewBox="0 0 48.0 48.0"><path d="M15,18C14.4477,18 14,18.4477 14,19C14,19.5523 14.4477,20 15,20V18ZM33,20C33.5523,20 34,19.5523 34,19C34,18.4477 33.5523,18 33,18V20ZM23,24C23,23.4477 22.5523,23 22,23C21.4477,23 21,23.4477 21,24H23ZM21,28C21,28.5523 21.4477,29 22,29C22.5523,29 23,28.5523 23,28H21ZM27,24C27,23.4477 26.5523,23 26,23C25.4477,23 25,23.4477 25,24H27ZM25,28C25,28.5523 25.4477,29 26,29C26.5523,29 27,28.5523 27,28H25ZM15,20H17V18H15V20ZM16,19V31H18V19H16ZM19,34H29V32H19V34ZM31,20H33V18H31V20ZM32,31V19H30V31H32ZM21,24V28H23V24H21ZM25,24V28H27V24H25ZM17,20H20V18H17V20ZM21,19C21,18.4934 21.1602,17.7111 21.6115,17.0843C22.0261,16.5085 22.7259,16 24,16V14C22.0741,14 20.7739,14.8249 19.9885,15.9157C19.2398,16.9555 19,18.1733 19,19H21ZM20,20H28V18H20V20ZM28,20H31V18H28V20ZM24,16C25.2741,16 25.9739,16.5085 26.3885,17.0843C26.8398,17.7111 27,18.4934 27,19H29C29,18.1733 28.7602,16.9555 28.0115,15.9157C27.2261,14.8249 25.9259,14 24,14V16ZM29,34C30.6569,34 32,32.6569 32,31H30C30,31.5523 29.5523,32 29,32V34ZM16,31C16,32.6569 17.3431,34 19,34V32C18.4477,32 18,31.5523 18,31H16Z" fill="#000000"/></svg>